<svg width="25" height="25" viewBox="0 0 25 25" fill="none" xmlns="http://www.w3.org/2000/svg">
<path d="M18.0193 16.4659C18.8249 16.0706 19.747 15.8455 20.729 15.8455H20.7324C20.8322 15.8455 20.8788 15.736 20.8056 15.6752C19.7844 14.8378 18.6177 14.1615 17.3536 13.674C17.3402 13.6679 17.3269 13.6648 17.3136 13.6588C19.3808 12.2871 20.7257 10.0578 20.7257 7.54258C20.7257 3.37591 17.0373 0 12.4867 0C7.93614 0 4.25107 3.37591 4.25107 7.54258C4.25107 10.0578 5.59594 12.2871 7.6665 13.6588C7.65319 13.6648 7.63987 13.6679 7.62656 13.674C6.13855 14.2488 4.80366 15.073 3.6552 16.1253C2.51336 17.1666 1.60432 18.4011 0.978775 19.7597C0.363308 21.0902 0.0311467 22.5157 8.32421e-05 23.9599C-0.000805254 23.9923 0.00542651 24.0246 0.0184115 24.0548C0.0313965 24.0851 0.0508719 24.1126 0.0756902 24.1358C0.100508 24.1591 0.130167 24.1776 0.162919 24.1902C0.195672 24.2028 0.230854 24.2093 0.266394 24.2092H2.2604C2.40354 24.2092 2.52338 24.1028 2.52671 23.972C2.59328 21.6241 3.62191 19.4252 5.44281 17.7585C7.32363 16.0341 9.82695 15.0852 12.4901 15.0852C14.3775 15.0852 16.1884 15.5627 17.7497 16.4568C17.7898 16.4798 17.8358 16.4928 17.8832 16.4944C17.9305 16.496 17.9775 16.4862 18.0193 16.4659ZM12.4901 12.7737C10.9654 12.7737 9.53068 12.2293 8.44879 11.2409C7.91648 10.7558 7.49449 10.1793 7.20712 9.54458C6.91974 8.90986 6.77266 8.22946 6.77436 7.54258C6.77436 6.14659 7.37023 4.83273 8.44879 3.84428C9.52735 2.85584 10.9621 2.31144 12.4901 2.31144C14.018 2.31144 15.4494 2.85584 16.5313 3.84428C17.0636 4.32935 17.4856 4.90585 17.773 5.54058C18.0604 6.1753 18.2074 6.8557 18.2057 7.54258C18.2057 8.93856 17.6099 10.2524 16.5313 11.2409C15.4494 12.2293 14.0147 12.7737 12.4901 12.7737ZM24.7337 20.0122H21.9374V17.4574C21.9374 17.3236 21.8176 17.2141 21.6711 17.2141H19.8069C19.6605 17.2141 19.5406 17.3236 19.5406 17.4574V20.0122H16.7444C16.5979 20.0122 16.4781 20.1217 16.4781 20.2555V21.9586C16.4781 22.0925 16.5979 22.2019 16.7444 22.2019H19.5406V24.7567C19.5406 24.8905 19.6605 25 19.8069 25H21.6711C21.8176 25 21.9374 24.8905 21.9374 24.7567V22.2019H24.7337C24.8802 22.2019 25 22.0925 25 21.9586V20.2555C25 20.1217 24.8802 20.0122 24.7337 20.0122Z" fill="white"/>
</svg>
