<svg width="104" height="99" viewBox="0 0 104 99" fill="none" xmlns="http://www.w3.org/2000/svg">
<path d="M95.005 8.96414C97.754 11.6511 99.9355 14.8457 101.424 18.3644C102.913 21.8831 103.679 25.6563 103.679 29.4671C103.679 33.278 102.913 37.0512 101.424 40.5699C99.9355 44.0885 97.754 47.2832 95.005 49.9701C86.096 58.7281 72.88 60.6421 62.024 55.8281L50.991 75.0261L33.35 76.8241L24.5 98.4001H6.80002L0.900024 86.8001L47.805 42.1981C42.377 31.3521 44.147 17.9541 53.292 8.96414C56.0253 6.26178 59.275 4.11724 62.8544 2.65386C66.4337 1.19049 70.272 0.437134 74.1485 0.437134C78.0251 0.437134 81.8634 1.19049 85.4427 2.65386C89.022 4.11724 92.2718 6.26178 95.005 8.96414ZM80.196 30.9461C84.562 30.9461 88.043 27.4661 88.043 23.1741C88.043 21.1283 87.2163 19.1662 85.7447 17.7195C84.2731 16.2729 82.2772 15.4601 80.196 15.4601C78.1149 15.4601 76.119 16.2729 74.6474 17.7195C73.1758 19.1662 72.349 21.1283 72.349 23.1741C72.349 27.4661 75.889 30.9461 80.196 30.9461Z" fill="#39555B"/>
</svg>
