<svg width="25" height="25" viewBox="0 0 30 30" fill="none" xmlns="http://www.w3.org/2000/svg">
<path d="M28.8351 17.2749L23.9796 14.9592C25.1118 14.2473 25.881 12.8544 25.881 11.253C25.881 8.92678 24.2619 7.04279 22.2636 7.04279C21.5769 7.04279 20.9427 7.27709 20.3967 7.66259C20.7349 8.52244 20.908 9.43832 20.907 10.3623C20.907 11.7969 20.4837 13.1574 19.7595 14.2821C20.0034 14.5589 20.2875 14.7976 20.6022 14.9901L20.5992 14.991L23.727 16.4823C24.6111 16.9104 25.1829 17.8572 25.1829 18.8958V22.9578H28.5273C28.974 22.9578 29.3355 22.5375 29.3355 22.0188V18.1476C29.3355 17.763 29.1378 17.4216 28.8351 17.2749Z" fill="white"/>
<path d="M9.47008 14.9475C9.73097 14.7794 9.96965 14.5791 10.1805 14.3514C9.42628 13.2171 8.98888 11.8311 8.98888 10.3623C8.98888 9.38099 9.18268 8.45129 9.52199 7.61129C8.99398 7.25969 8.39008 7.04279 7.73758 7.04279C5.73778 7.04279 4.11898 8.92678 4.11898 11.253C4.11898 12.8805 4.91428 14.289 6.07618 14.9901L1.17148 17.2731C0.865485 17.4168 0.664185 17.7618 0.664185 18.1476V22.0185C0.664185 22.5372 1.02688 22.9575 1.47238 22.9575H4.71388V18.8955C4.71388 17.8446 5.29528 16.8939 6.19678 16.4715L9.47008 14.9475Z" fill="white"/>
<path d="M23.082 17.8158L18.8589 15.8013L17.0733 14.9493C17.8533 14.4582 18.4866 13.6998 18.9012 12.7863C19.247 12.0249 19.4259 11.1983 19.4259 10.362C19.4259 9.8694 19.3479 9.4017 19.239 8.9502C18.7077 6.7623 16.9992 5.1507 14.9484 5.1507C12.936 5.1507 11.2536 6.705 10.6896 8.8305C10.5594 9.318 10.4697 9.825 10.4697 10.362C10.4697 11.2947 10.6878 12.1644 11.058 12.9207C11.4861 13.7982 12.1206 14.5218 12.8928 14.9871L11.1822 15.7833L6.822 17.8137C6.4434 17.991 6.1944 18.4185 6.1944 18.8955V23.6865C6.1944 24.3285 6.642 24.849 7.1943 24.849H22.7016C23.2539 24.849 23.7015 24.3285 23.7015 23.6865V18.8955C23.7018 18.4203 23.457 17.997 23.082 17.8158Z" fill="white"/>
</svg>
